<svg height="512pt" viewBox="0 0 512 512" width="512pt" xmlns="http://www.w3.org/2000/svg"><path d="m469.332031 42.667969h-42.664062v-17.066407c0-14.140624-11.460938-25.601562-25.601563-25.601562-14.136718 0-25.601562 11.460938-25.601562 25.601562v17.066407h-238.929688v-17.066407c0-14.140624-11.464844-25.601562-25.601562-25.601562-14.140625 0-25.601563 11.460938-25.601563 25.601562v17.066407h-42.664062c-23.554688.027343-42.6406252 19.113281-42.667969 42.664062v384c.0273438 23.554688 19.113281 42.640625 42.667969 42.667969h426.664062c23.554688-.027344 42.640625-19.113281 42.667969-42.667969v-384c-.027344-23.550781-19.113281-42.636719-42.667969-42.664062zm-42.664062 53.304687c-1.140625 13.292969-12.261719 23.5-25.601563 23.5s-24.460937-10.207031-25.601562-23.5c.0625-3.109375.792968-6.171875 2.144531-8.976562 4.070313 9.335937 13.28125 15.371094 23.464844 15.371094 10.183593 0 19.398437-6.035157 23.46875-15.371094 1.34375 2.804687 2.066406 5.867187 2.125 8.976562zm-34.132813-70.371094c0-4.714843 3.820313-8.535156 8.53125-8.535156 4.714844 0 8.535156 3.820313 8.535156 8.535156v51.199219c0 4.710938-3.820312 8.53125-8.535156 8.53125-4.710937 0-8.53125-3.820312-8.53125-8.53125zm-256 70.371094c-.625 13.539063-12.0625 24.035156-25.601562 23.492188-13.542969.542968-24.976563-9.953125-25.601563-23.492188.0625-3.109375.792969-6.171875 2.144531-8.976562 4.066407 9.335937 13.28125 15.371094 23.464844 15.371094s19.398438-6.035157 23.46875-15.371094c1.34375 2.804687 2.066406 5.867187 2.125 8.976562zm-34.136718-70.371094c0-4.714843 3.820312-8.535156 8.535156-8.535156 4.710937 0 8.53125 3.820313 8.53125 8.535156v51.199219c0 4.710938-3.820313 8.53125-8.53125 8.53125-4.714844 0-8.535156-3.820312-8.535156-8.53125zm-59.730469 34.132813h42.664062v3.839844c-10.605469 7.402343-16.96875 19.488281-17.066406 32.425781.636719 22.953125 19.710937 41.074219 42.667969 40.535156 22.964844.539063 42.042968-17.597656 42.667968-40.5625-.097656-12.933594-6.460937-25.019531-17.066406-32.425781v-3.8125h238.929688v3.839844c-10.605469 7.402343-16.96875 19.488281-17.066406 32.425781 1.117187 22.753906 19.886718 40.628906 42.667968 40.628906s41.550782-17.875 42.667969-40.628906c-.097656-12.9375-6.460937-25.023438-17.066406-32.425781v-3.839844h42.664062c14.140625 0 25.601563 11.460937 25.601563 25.597656v68.269531h-477.867188v-68.269531c0-14.136719 11.460938-25.597656 25.601563-25.597656zm426.664062 435.199219h-426.664062c-14.140625 0-25.601563-11.460938-25.601563-25.601563v-298.664062h477.867188v298.664062c0 14.140625-11.460938 25.601563-25.601563 25.601563zm0 0"/><path d="m375.464844 187.734375h-238.929688c-18.851562 0-34.136718 15.28125-34.136718 34.132813v221.867187c0 18.851563 15.285156 34.132813 34.136718 34.132813h238.929688c18.851562 0 34.136718-15.28125 34.136718-34.132813v-221.867187c0-18.851563-15.285156-34.132813-34.136718-34.132813zm-256 34.132813c0-9.425782 7.644531-17.066407 17.070312-17.066407h238.929688c9.425781 0 17.070312 7.640625 17.070312 17.066407v17.066406h-273.070312zm256 238.933593h-238.929688c-9.425781 0-17.070312-7.640625-17.070312-17.066406v-187.734375h273.070312v187.734375c0 9.425781-7.644531 17.066406-17.070312 17.066406zm0 0"/><path d="m290.132812 426.667969h-25.597656v-145.066407c0-3.234374-1.828125-6.1875-4.71875-7.632812s-6.351562-1.132812-8.9375.804688l-34.132812 25.601562c-2.4375 1.828125-3.714844 4.820312-3.351563 7.847656.363281 3.023438 2.316407 5.628906 5.121094 6.824219 2.800781 1.199219 6.03125.808594 8.472656-1.019531l20.476563-15.359375v128h-25.597656c-4.714844 0-8.535157 3.820312-8.535157 8.53125 0 4.714843 3.820313 8.535156 8.535157 8.535156h68.265624c4.714844 0 8.535157-3.820313 8.535157-8.535156 0-4.710938-3.820313-8.53125-8.535157-8.53125zm0 0"/></svg>