<?xml version="1.0" encoding="iso-8859-1"?>
<!-- Generator: Adobe Illustrator 16.0.0, SVG Export Plug-In . SVG Version: 6.00 Build 0)  -->
<!DOCTYPE svg PUBLIC "-//W3C//DTD SVG 1.1//EN" "http://www.w3.org/Graphics/SVG/1.1/DTD/svg11.dtd">
<svg version="1.1" id="Capa_1" xmlns="http://www.w3.org/2000/svg" xmlns:xlink="http://www.w3.org/1999/xlink" x="0px" y="0px"
	 width="792px" height="792px" viewBox="0 0 792 792" style="enable-background:new 0 0 792 792;" xml:space="preserve">
<g>
	<g>
		<path d="M680.05,680.713c-2.471-3.933-13.62-21.146-37.274-57.56c-19.204-29.663-34.371-53.093-37.341-57.538
			c-8.865-13.492-18.099-25.599-33.536-25.599c-6.921,0-14.29,2.398-22.98,7.433c-1.708,0.924-4.488,2.547-8.133,4.683l-3.5,2.047
			c-5.721,0.763-11.898,3.089-18.738,7.029c-1.958,1.098-5.34,3.085-9.887,5.759c-3.22,1.895-7.038,4.145-11.348,6.657
			c-5.577,3.251-10.26,5.988-13.912,8.146c-69.314-67.771-185.954-245.301-215.82-342.101l20.743-12.191
			c9.225-5.39,15.946-9.327,18.87-11.115c4.619-2.758,8.335-5.534,11.318-8.454c6.971-4.085,12.196-7.153,14.667-8.674
			c11.505-6.891,17.793-14.031,19.79-22.464c2.792-11.797-3.704-23.366-11.217-35.193c-2.852-4.454-17.641-27.307-37.485-57.877
			c-19.429-30.057-34.528-53.338-37.562-57.907C257.757,12.2,248.443,0,232.934,0c-6.92,0-14.276,2.386-23.095,7.479
			c-2.03,1.148-5.708,3.31-10.573,6.187c-5.475,0.886-11.34,3.166-17.768,6.878c-2.471,1.369-7.25,4.183-13.751,8.018l-7.513,4.428
			c-11.721,6.843-18.272,10.712-21.12,12.475c-6.314,3.759-10.903,7.497-14.179,11.573c-1.013,0.385-1.987,0.869-2.916,1.453
			c-15.408,9.818-37.914,75.001-4.437,204.718c35.672,138.37,138.022,335.71,278.439,441.992
			c78.184,59.212,151.027,86.795,175.64,86.799c4.444,0,7.895-0.813,10.229-2.293c0.385-0.22,0.763-0.453,1.127-0.707
			c5.712-0.759,11.938-3.11,18.87-7.115c3.335-1.882,10.882-6.318,21.213-12.403c4.038-2.382,7.649-4.492,10.742-6.297
			c4.898-2.869,8.53-4.992,10.446-6.179c5.991-3.589,10.518-7.229,13.78-11.094l0.067-0.038c6.251-3.67,10.946-6.429,13.162-7.81
			c11.53-6.895,17.832-14.035,19.832-22.46C693.911,703.875,687.465,692.392,680.05,680.713z M674.634,711.693
			c-0.848,3.581-4.895,7.556-12.162,11.903c-2.279,1.42-6.844,4.098-12.92,7.666l-1.411,0.826c-0.966,0.563-1.805,1.318-2.475,2.208
			c-1.949,2.581-5.344,5.331-10.195,8.238c-1.954,1.212-5.454,3.258-10.179,6.017c-3.106,1.818-6.738,3.941-10.798,6.331
			c-10.188,6.005-17.628,10.382-21.006,12.28c-5.763,3.331-10.534,5.064-14.175,5.153c-2.263,0.051-4.402,1.009-5.949,2.636
			c-0.33,0.047-0.877,0.098-1.699,0.098c-19.298-0.005-87.625-24.455-165.41-83.366
			c-137.183-103.833-237.296-297.088-272.26-432.708c-30.926-119.834-11.158-179.915-3.038-186.085
			c2.563-0.284,4.86-1.72,6.242-3.911c1.771-2.818,5.331-5.831,10.696-9.026c2.848-1.758,9.289-5.56,20.908-12.348l7.551-4.445
			c6.318-3.725,10.958-6.462,13.493-7.865c5.148-2.975,9.564-4.67,13.124-5.034c1.216-0.123,2.395-0.513,3.45-1.14
			c5.475-3.237,9.602-5.666,11.839-6.933c6.022-3.475,10.958-5.238,14.675-5.238c5.793,0,10.556,4.412,19.625,18.192
			c2.97,4.475,18.378,28.227,37.477,57.775c19.828,30.54,34.591,53.364,37.422,57.779c6.42,10.098,10.162,17.328,9.018,22.167
			c-0.852,3.585-4.89,7.564-12.085,11.878c-2.61,1.602-8.098,4.818-15.403,9.098c-0.666,0.394-1.28,0.873-1.818,1.432
			c-2.034,2.115-4.958,4.318-8.751,6.585c-2.949,1.805-9.573,5.678-18.654,10.988l-23.09,13.582l-1.204,0.627
			c-0.729,0.373-1.437,0.737-2.144,1.145c-3.365,1.924-4.992,5.89-3.954,9.624c28.231,101.439,153.862,292.295,227.028,360.711
			c2.759,2.576,6.895,3.025,10.133,1.089c3.775-2.25,10.373-6.14,19.318-11.348c4.34-2.534,8.179-4.793,11.412-6.7
			c4.395-2.58,7.662-4.504,9.653-5.623c5.42-3.123,10.005-4.835,13.624-5.068c1.31-0.089,2.576-0.475,3.708-1.14l5.114-2.992
			c3.42-2.004,6.018-3.529,7.836-4.513c6.047-3.5,10.992-5.271,14.704-5.271c5.733,0,10.438,4.36,19.403,18.014
			c2.938,4.395,18.078,27.782,37.253,57.398c16.658,25.642,34.096,52.512,37.164,57.39
			C672.066,699.756,675.77,706.909,674.634,711.693z"/>
		<path d="M161.832,85.019c0.487-4.657-2.89-8.823-7.543-9.314c-4.624-0.449-8.823,2.886-9.314,7.542
			c-0.635,6.073-14.993,149.968,42.469,258.688c1.521,2.877,4.462,4.513,7.505,4.513c1.331,0,2.691-0.313,3.954-0.979
			c4.14-2.19,5.721-7.318,3.534-11.454C147.415,229.931,161.679,86.455,161.832,85.019z"/>
		<path d="M569.313,729.746c-129.492-32.744-273.981-213.677-275.426-215.498c-2.916-3.679-8.242-4.285-11.908-1.386
			c-3.67,2.911-4.292,8.233-1.386,11.907c0.369,0.466,37.528,47.215,90.629,97.431c71.759,67.873,137.005,109.584,193.937,123.983
			c0.695,0.173,1.395,0.258,2.085,0.258c3.788,0,7.237-2.56,8.208-6.398C576.602,735.505,573.852,730.895,569.313,729.746z"/>
	</g>
</g>
<g>
</g>
<g>
</g>
<g>
</g>
<g>
</g>
<g>
</g>
<g>
</g>
<g>
</g>
<g>
</g>
<g>
</g>
<g>
</g>
<g>
</g>
<g>
</g>
<g>
</g>
<g>
</g>
<g>
</g>
</svg>
