<svg height="480pt" viewBox="0 1 480 479" width="480pt" xmlns="http://www.w3.org/2000/svg"><path d="m472 432.5h-32v-208h32c3.3125 0 6.285156-2.046875 7.46875-5.140625 1.1875-3.09375.339844-6.597656-2.125-8.8125l-232-208c-3.039062-2.730469-7.648438-2.730469-10.6875 0l-232 208c-2.464844 2.214844-3.3125 5.71875-2.125 8.8125 1.183594 3.09375 4.15625 5.140625 7.46875 5.140625h32v208h-32c-4.417969 0-8 3.582031-8 8v32c0 4.417969 3.582031 8 8 8h464c4.417969 0 8-3.582031 8-8v-32c0-4.417969-3.582031-8-8-8zm-48 0h-16v-208h16zm-96 0v-152c0-4.417969-3.582031-8-8-8h-160c-4.417969 0-8 3.582031-8 8v152h-32v-208h240v208zm-16-112h-144v-32h144zm-144 16h144v96h-144zm-80-112h16v208h-16zm288 0h16v208h-16zm-136-205.257812 211.097656 189.257812h-422.195312zm-184 205.257812h16v208h-16zm408 240h-448v-16h448zm0 0"/><path d="m208 152.5c-4.417969 0-8 3.582031-8 8s3.582031 8 8 8h24v8c0 4.417969 3.582031 8 8 8s8-3.582031 8-8v-8h24c4.417969 0 8-3.582031 8-8v-32c0-4.417969-3.582031-8-8-8h-24v-16h24c4.417969 0 8-3.582031 8-8s-3.582031-8-8-8h-24v-8c0-4.417969-3.582031-8-8-8s-8 3.582031-8 8v8h-24c-4.417969 0-8 3.582031-8 8v32c0 4.417969 3.582031 8 8 8h24v16zm8-32v-16h16v16zm32 16h16v16h-16zm0 0"/></svg>