<svg height="512pt" viewBox="0 0 512.31125 512" width="512pt" xmlns="http://www.w3.org/2000/svg"><path d="m21.824219 395.53125c3.863281 7.441406 6.871093 15.296875 8.976562 23.414062 1.058594 5.523438 4.378907 10.355469 9.15625 13.320313l29.097657 17.921875c4.851562 2.96875 10.953124 2.96875 15.804687 0l29.132813-17.972656c4.769531-2.976563 8.078124-7.8125 9.128906-13.335938 2.113281-8.132812 5.136718-16.003906 9.011718-23.460937 2.554688-.480469 5.035157-1.289063 7.382813-2.40625 8.996094-3.902344 14.660156-12.949219 14.242187-22.75 1.316407-11.492188-5.921874-22.234375-17.066406-25.332031v-20.71875c0-26.71875-17.210937-35.21875-27.375-36.949219-11.949218-11.878907-16.835937-11.878907-43.734375-11.878907-24.890625 0-38.613281 20.375-44.578125 32.503907-2.515625 5.109375-3.8125 10.734375-3.78125 16.433593v20.609376c-11.15625 3.097656-18.394531 13.855468-17.066406 25.359374-.25 12.699219 9.074219 23.5625 21.667969 25.242188zm-.726563-34.003906h4.660156c4.710938 0 8.53125-3.824219 8.53125-8.535156v-28.671876c-.023437-3.082031.667969-6.125 2.023438-8.890624 4.214844-8.535157 13.652344-22.980469 29.269531-22.980469 24.746094 0 24.746094 0 31.753907 6.953125l1.996093 2.03125c1.597657 1.574218 3.730469 2.488281 5.972657 2.558594 3.363281.09375 14.34375 1.851562 14.34375 20.242187v28.785156c0 4.710938 3.820312 8.53125 8.535156 8.53125h4.660156c.039062 0 3.871094.238281 3.871094 8.738281.386718 3.175782-1.445313 6.203126-4.4375 7.339844-1.777344.8125-3.695313 1.289063-5.648438 1.398438-3.136718 0-6.019531 1.71875-7.507812 4.480468-5.515625 10.167969-9.785156 20.964844-12.714844 32.152344-.148438.871094-.652344 1.636719-1.390625 2.117188l-28.058594 17.269531-27.996093-17.277344c-.75-.472656-1.265626-1.238281-1.417969-2.109375-2.933594-11.199218-7.207031-22-12.722657-32.179687-1.492187-2.757813-4.375-4.480469-7.511718-4.480469-2.523438.320312-5.066406-.453125-6.988282-2.117188-1.925781-1.667968-3.050781-4.074218-3.097656-6.621093 0-5.324219 1.527344-8.515625 3.875-8.734375zm0 0"/><path d="m495.089844 344.929688v-20.71875c0-26.71875-17.210938-35.21875-27.375-36.949219-11.945313-11.878907-16.835938-11.878907-43.734375-11.878907-24.890625 0-38.613281 20.375-44.578125 32.503907-2.515625 5.109375-3.808594 10.734375-3.777344 16.433593v20.609376c-11.15625 3.097656-18.398438 13.855468-17.066406 25.359374-.265625 12.710938 9.0625 23.589844 21.664062 25.265626 3.863282 7.445312 6.875 15.300781 8.976563 23.417968 1.058593 5.523438 4.378906 10.351563 9.15625 13.320313l29.101562 17.917969c4.847657 2.972656 10.953125 2.972656 15.800781 0l29.132813-17.96875c4.769531-2.980469 8.082031-7.8125 9.132813-13.339844 2.109374-8.132813 5.132812-16 9.011718-23.457032 2.550782-.480468 5.03125-1.289062 7.378906-2.40625 9.007813-3.90625 14.671876-12.964843 14.242188-22.777343 1.316406-11.492188-5.921875-22.234375-17.066406-25.332031zm-4.4375 32.699218c-1.777344.8125-3.695313 1.289063-5.648438 1.398438-3.136718 0-6.019531 1.71875-7.507812 4.480468-5.515625 10.167969-9.785156 20.964844-12.714844 32.152344-.148438.871094-.652344 1.636719-1.390625 2.117188l-28.035156 17.269531-27.996094-17.277344c-.75-.472656-1.261719-1.238281-1.417969-2.109375-2.933594-11.199218-7.203125-22-12.722656-32.179687-1.488281-2.757813-4.371094-4.480469-7.507812-4.480469-2.527344.320312-5.070313-.453125-6.992188-2.117188-1.925781-1.667968-3.050781-4.074218-3.09375-6.621093 0-5.324219 1.527344-8.53125 3.871094-8.734375h4.660156c4.714844 0 8.535156-3.824219 8.535156-8.535156v-28.671876c-.027344-3.082031.664063-6.125 2.019532-8.890624 4.21875-8.535157 13.65625-22.980469 29.269531-22.980469 24.789062 0 24.789062 0 31.753906 6.953125l1.996094 2.03125c1.597656 1.574218 3.730469 2.488281 5.972656 2.558594 3.363281.09375 14.347656 1.851562 14.347656 20.242187v28.785156c0 4.710938 3.820313 8.53125 8.53125 8.53125h4.660157c.042968 0 3.875.238281 3.875 8.738281.367187 3.171876-1.472657 6.191407-4.464844 7.3125zm0 0"/><path d="m453.703125 502.375c-.011719-.417969-.054687-.839844-.128906-1.253906-2.25-7.3125-4.941407-14.480469-8.054688-21.46875-2.320312-5.074219-6.253906-9.238282-11.1875-11.84375-36.683593-19.703125-76.246093-33.5-117.230469-40.875-3.867187-.554688-7.621093 1.589844-9.105468 5.207031l-25.898438 62.972656h-51.882812l-25.898438-62.972656c-1.484375-3.617187-5.234375-5.761719-9.105468-5.207031-40.96875 7.378906-80.523438 21.171875-117.195313 40.875-4.964844 2.628906-8.917969 6.828125-11.238281 11.945312-3.101563 6.945313-5.785156 14.070313-8.039063 21.335938-.070312.414062-.113281.832031-.128906 1.253906-.117187.425781-.203125.863281-.253906 1.304688 0 .152343.074219.273437.085937.425781.054688.578125.171875 1.152343.347656 1.707031.105469.511719.257813 1.011719.453126 1.492188.242187.46875.527343.910156.851562 1.324218.304688.460938.652344.890625 1.035156 1.289063.390625.320312.8125.605469 1.253906.851562.492188.34375 1.019532.628907 1.578126.855469.136718 0 .230468.152344.367187.195312.828125.253907 1.691406.382813 2.558594.382813h378.539062c.867188 0 1.730469-.128906 2.5625-.382813.132813 0 .226563-.152343.363281-.195312.558594-.230469 1.089844-.515625 1.589844-.855469.4375-.25.855469-.535156 1.246094-.851562.707031-.800781 1.347656-1.65625 1.917969-2.5625.195312-.484375.347656-.988281.453125-1.5.175781-.554688.292968-1.128907.351562-1.707031 0-.152344.082032-.273438.082032-.425782-.058594-.445312-.152344-.886718-.289063-1.316406zm-132.488281-57.511719c36.691406 7.53125 72.101562 20.332031 105.132812 37.996094 1.585938.832031 2.855469 2.164063 3.609375 3.789063 1.21875 2.730468 2.363281 5.582031 3.472657 8.464843h-132.898438zm-235.210938 37.988281c33.015625-17.664062 68.414063-30.460937 105.09375-37.988281l20.6875 50.25h-132.898437c1.101562-2.875 2.242187-5.714843 3.414062-8.429687.765625-1.65625 2.070313-3.007813 3.703125-3.832032zm0 0"/><path d="m415.808594 135.007812c0-.289062.066406-.554687 0-.851562-.070313-.300781-.1875-.402344-.25-.625-3.265625-18.105469-9.617188-35.515625-18.773438-51.472656-.070312-.289063-.164062-.574219-.273437-.851563-.214844-.285156-.453125-.550781-.707031-.804687-9.25-15.75-21.074219-29.832032-34.984376-41.667969-.167968-.234375-.347656-.457031-.539062-.671875-.152344-.128906-.339844-.15625-.503906-.273438-14.128906-11.742187-30.152344-20.996093-47.386719-27.367187-.25-.179687-.511719-.339844-.785156-.488281-.28125-.058594-.566407-.101563-.851563-.125-35.238281-12.871094-73.886718-12.871094-109.125 0-.285156.023437-.570312.066406-.851562.125-.273438.148437-.535156.308594-.785156.488281-17.265626 6.367187-33.324219 15.625-47.480469 27.382813-.164063.121093-.351563.144531-.503907.273437-.191406.214844-.371093.441406-.539062.675781-13.910156 11.832032-25.738281 25.917969-34.984375 41.667969-.257813.246094-.492187.515625-.710937.800781-.109376.277344-.199219.5625-.269532.851563-9.160156 15.957031-15.511718 33.367187-18.773437 51.476562-.0625.21875-.207031.390625-.25.621094s.042969.554687 0 .851563c-3.304688 18.179687-3.304688 36.804687 0 54.980468v.503906c0 .171876.136719.308594.179687.488282 3.289063 18.277344 9.6875 35.859375 18.917969 51.976562.078125.144532.070313.296875.15625.441406.140625.210938.300781.414063.46875.605469 13.355469 22.847657 32.109375 42.066407 54.621094 55.980469v.785156c-8.234375 3.523438-17.066407 12.578125-17.066407 32.195313-.675781 16.929687 11.722657 31.558593 28.535157 33.664062 5.863281 12.003907 10.390625 24.617188 13.507812 37.605469 1.179688 6.910156 5.121094 13.042969 10.914063 16.992188l40.019531 26.613281c5.707031 3.808593 13.140625 3.808593 18.84375 0l40.105469-26.648438c5.785156-3.957031 9.710937-10.097656 10.882812-17.007812 3.125-13.003907 7.667969-25.628907 13.539063-37.648438 3.835937-.65625 7.550781-1.886719 11.019531-3.652343 11.265625-5.59375 18.121094-17.355469 17.433594-29.917969 0-19.625-8.832032-28.671875-17.066406-32.195313v-.785156c22.507812-13.921875 41.261718-33.15625 54.613281-56.011719.167969-.191406.324219-.394531.46875-.605469.085937-.144531.074219-.300781.152343-.445312 9.230469-16.117188 15.628907-33.695312 18.917969-51.976562.042969-.179688.144531-.316407.179688-.484376.035156-.171874 0-.335937 0-.503906 3.304687-18.175781 3.304687-36.796875 0-54.972656zm-82.433594 212.683594c-2.792969 1.386719-5.839844 2.1875-8.953125 2.355469-3.246094-.015625-6.226563 1.8125-7.679687 4.71875-7.421876 14.765625-13.148438 30.324219-17.066407 46.378906-.351562 2.363281-1.640625 4.480469-3.574219 5.878907l-39.945312 26.652343-39.953125-26.625c-1.945313-1.386719-3.246094-3.5-3.609375-5.863281-3.914062-16.070312-9.636719-31.644531-17.066406-46.421875-1.445313-2.890625-4.402344-4.71875-7.636719-4.71875-4.609375.296875-9.125-1.40625-12.394531-4.671875-3.265625-3.265625-4.96875-7.78125-4.671875-12.394531 0-15.707031 7.3125-16.972657 8.53125-17.066407 4.714843 0 8.535156-3.820312 8.535156-8.53125v-42.496093c-.035156-5.191407 1.148437-10.320313 3.457031-14.96875 6.78125-13.59375 21.953125-36.402344 47.742188-36.402344 38.988281 0 38.988281 0 50.714844 11.578125l2.984374 2.988281c1.601563 1.597657 3.773438 2.5 6.035157 2.5 1.039062 0 25.597656.390625 25.597656 34.132813v42.667968c.03125 4.328126 3.324219 7.933594 7.628906 8.351563.230469 0 .429688.15625.667969.171875 1.457031.101562 8.773438 1.367188 8.773438 17.066406.675781 6.125-2.574219 12.015625-8.117188 14.710938zm8.117188-68.214844v-14.761718c0-37.28125-23.648438-49.304688-38.921876-50.996094l-.726562-.722656c-16.742188-16.546875-21.988281-16.546875-62.753906-16.546875-34.984375 0-54.511719 28.730469-63.019532 45.847656-3.492187 7.015625-5.289062 14.753906-5.246093 22.589844v14.589843c-14.058594-10.222656-26.164063-22.894531-35.730469-37.410156l6.316406-3.644531c2.660156-1.511719 4.308594-4.335937 4.316406-7.398437.003907-3.0625-1.628906-5.890626-4.285156-7.417969-2.65625-1.523438-5.921875-1.511719-8.566406.039062l-6.320312 3.644531c-5.007813-10.003906-8.84375-20.554687-11.429688-31.4375l7.167969-1.273437c3.105469-.417969 5.730469-2.5 6.839843-5.429687 1.109376-2.925782.527344-6.226563-1.515624-8.597657-2.046876-2.371093-5.222657-3.433593-8.285157-2.765625l-7.210937 1.261719c-1.378906-11.109375-1.378906-22.351563 0-33.464844l7.203125 1.269531c.492187.085938.992187.128907 1.496093.128907 4.40625-.027344 8.066407-3.40625 8.449219-7.796875.378907-4.390625-2.648437-8.347656-6.984375-9.132813l-7.132812-1.261719c2.585937-10.878906 6.433594-21.417968 11.460937-31.40625l6.253907 3.601563c2.640624 1.550781 5.910156 1.566406 8.566406.039063 2.65625-1.523438 4.289062-4.355469 4.28125-7.417969-.003906-3.0625-1.652344-5.886719-4.3125-7.398438l-6.308594-3.636719c6.1875-9.3125 13.421875-17.886718 21.566406-25.546874l4.605469 5.503906c1.960937 2.335937 5.015625 3.449218 8.019531 2.921875 3.003906-.527344 5.496094-2.617188 6.539063-5.484375 1.046875-2.863282.484375-6.066406-1.476563-8.402344l-4.609375-5.496094c8.949219-6.71875 18.640625-12.378906 28.886719-16.871094l2.507812 6.886719c1 2.921875 3.5 5.074219 6.539063 5.628907 3.039063.558593 6.140625-.570313 8.109375-2.949219 1.96875-2.378907 2.5-5.636719 1.386719-8.515625l-2.507813-6.886719c10.730469-3.164063 21.792969-5.066406 32.964844-5.675781v7.246094c0 4.710937 3.820312 8.53125 8.53125 8.53125 4.714844 0 8.535156-3.820313 8.535156-8.53125v-7.246094c11.171875.609375 22.230469 2.519531 32.964844 5.683594l-2.511719 6.886718c-1.109375 2.878906-.582031 6.136719 1.390625 8.515625 1.96875 2.378907 5.070313 3.507813 8.105469 2.953125 3.039063-.558594 5.539063-2.710937 6.539063-5.632812l2.507812-6.886719c10.246094 4.488281 19.933594 10.148437 28.878906 16.863281l-4.609375 5.496094c-3.027343 3.609375-2.554687 8.992188 1.058594 12.023438 3.613281 3.027343 8.996094 2.550781 12.023437-1.058594l4.609376-5.503906c8.140624 7.660156 15.375 16.234374 21.5625 25.546874l-6.304688 3.636719c-2.664062 1.511719-4.308594 4.335938-4.316406 7.398438-.007813 3.0625 1.628906 5.894531 4.28125 7.417969 2.65625 1.527343 5.925781 1.511718 8.566406-.039063l6.253906-3.601563c5.03125 9.988282 8.875 20.527344 11.460938 31.40625l-7.132813 1.261719c-4.335937.785157-7.363281 4.742188-6.980469 9.132813.378907 4.390625 4.039063 7.769531 8.449219 7.796875.5 0 1-.042969 1.492188-.128907l7.203125-1.269531c1.382812 11.113281 1.382812 22.355469 0 33.464844l-7.210938-1.261719c-3.058594-.667968-6.238281.394532-8.285156 2.765625-2.042969 2.371094-2.625 5.671875-1.515625 8.597657 1.109375 2.929687 3.734375 5.011718 6.839844 5.429687l7.167969 1.273437c-2.585938 10.882813-6.421876 21.433594-11.425782 31.4375l-6.324218-3.644531c-2.640626-1.550781-5.910157-1.5625-8.566407-.039062-2.65625 1.527343-4.289062 4.355469-4.28125 7.417969.003907 3.0625 1.652344 5.886718 4.3125 7.398437l6.324219 3.644531c-9.570312 14.511719-21.671875 27.183594-35.726562 37.410156zm0 0"/><path d="m337 153.78125h-57.75c-2.507812-6.738281-7.824219-12.050781-14.558594-14.558594v-81.996094c0-4.710937-3.820312-8.53125-8.535156-8.53125-4.710938 0-8.53125 3.820313-8.53125 8.53125v81.996094c-10.71875 3.925782-17.34375 14.691406-16.011719 26.027344s10.269531 20.277344 21.609375 21.609375c11.335938 1.332031 22.101563-5.292969 26.027344-16.011719h57.75c4.714844 0 8.535156-3.820312 8.535156-8.53125 0-4.714844-3.820312-8.535156-8.535156-8.535156zm-80.84375 16.214844c-4.207031-.023438-7.601562-3.445313-7.59375-7.652344s3.417969-7.617188 7.625-7.625c4.203125-.007812 7.625 3.390625 7.648438 7.597656 0 4.238282-3.4375 7.679688-7.679688 7.679688zm0 0"/></svg>