<?xml version="1.0" encoding="iso-8859-1"?>
<!-- Generator: Adobe Illustrator 16.0.0, SVG Export Plug-In . SVG Version: 6.00 Build 0)  -->
<!DOCTYPE svg PUBLIC "-//W3C//DTD SVG 1.1//EN" "http://www.w3.org/Graphics/SVG/1.1/DTD/svg11.dtd">
<svg version="1.1" id="Capa_1" xmlns="http://www.w3.org/2000/svg" xmlns:xlink="http://www.w3.org/1999/xlink" x="0px" y="0px"
	 width="412.535px" height="412.535px" viewBox="0 0 412.535 412.535" style="enable-background:new 0 0 412.535 412.535;"
	 xml:space="preserve">
<g>
	<g>
		<path d="M340.569,384.606c1.478,5.61,6.539,9.32,12.08,9.32c1.053,0,2.125-0.134,3.191-0.415
			c6.676-1.758,10.663-8.595,8.904-15.271L272.5,27.931c-1.759-6.677-8.597-10.668-15.271-8.905
			c-6.676,1.758-10.663,8.595-8.904,15.271L340.569,384.606z"/>
		<path d="M56.696,393.512c1.066,0.281,2.137,0.415,3.191,0.415c5.54,0,10.603-3.711,12.08-9.32l92.245-350.311
			c1.758-6.676-2.229-13.513-8.905-15.271c-6.675-1.761-13.513,2.229-15.271,8.905L47.79,378.241
			C46.033,384.917,50.019,391.754,56.696,393.512z"/>
		<path d="M400.024,393.927c1.064,0,2.147-0.137,3.225-0.424c6.671-1.776,10.639-8.624,8.862-15.297l-93.279-350.31
			c-1.776-6.672-8.627-10.642-15.296-8.862c-6.671,1.776-10.639,8.624-8.862,15.296l93.278,350.311
			C389.442,390.234,394.498,393.927,400.024,393.927z"/>
		<path d="M9.287,393.503c1.078,0.287,2.16,0.424,3.224,0.424c5.526,0,10.582-3.693,12.071-9.286L117.861,34.33
			c1.776-6.672-2.191-13.52-8.863-15.296c-6.671-1.779-13.519,2.192-15.295,8.862L0.424,378.206
			C-1.352,384.879,2.616,391.727,9.287,393.503z"/>
		<path d="M206.268,327.479c-6.904,0-12.5,5.598-12.5,12.5v32.578c0,6.903,5.596,12.5,12.5,12.5s12.5-5.597,12.5-12.5v-32.578
			C218.768,333.077,213.172,327.479,206.268,327.479z"/>
		<path d="M218.768,239.979c0-6.902-5.596-12.5-12.5-12.5s-12.5,5.598-12.5,12.5v32.578c0,6.903,5.596,12.5,12.5,12.5
			s12.5-5.597,12.5-12.5V239.979z"/>
		<path d="M218.768,139.979c0-6.903-5.596-12.5-12.5-12.5s-12.5,5.597-12.5,12.5v32.578c0,6.903,5.596,12.5,12.5,12.5
			s12.5-5.597,12.5-12.5V139.979z"/>
		<path d="M218.768,39.979c0-6.903-5.596-12.5-12.5-12.5s-12.5,5.597-12.5,12.5v32.578c0,6.903,5.596,12.5,12.5,12.5
			s12.5-5.597,12.5-12.5V39.979z"/>
	</g>
</g>
<g>
</g>
<g>
</g>
<g>
</g>
<g>
</g>
<g>
</g>
<g>
</g>
<g>
</g>
<g>
</g>
<g>
</g>
<g>
</g>
<g>
</g>
<g>
</g>
<g>
</g>
<g>
</g>
<g>
</g>
</svg>
