<?xml version="1.0" encoding="iso-8859-1"?>
<!-- Generator: Adobe Illustrator 19.0.0, SVG Export Plug-In . SVG Version: 6.00 Build 0)  -->
<svg version="1.1" id="Capa_1" xmlns="http://www.w3.org/2000/svg" xmlns:xlink="http://www.w3.org/1999/xlink" x="0px" y="0px"
	 viewBox="0 0 512 512" style="enable-background:new 0 0 512 512;" xml:space="preserve">
<g>
	<g>
		<path d="M497,355.1h-18.8v-34.2c0-8.3-6.7-15-15-15H48.8c-8.3,0-15,6.7-15,15v34.2H15c-8.3,0-15,6.7-15,15v90.2
			c0,8.3,6.7,15,15,15h482c8.3,0,15-6.7,15-15v-90.2C512,361.8,505.3,355.1,497,355.1z M63.8,335.9h384.3v19.2H63.8V335.9z
			 M482,445.3H30v-60.2h452V445.3z"/>
	</g>
</g>
<g>
	<g>
		<path d="M381.1,36.7H256c-8.3,0-15,6.7-15,15s6.7,15,15,15h110.1v29.6c-42.8-3.8-154.7-8-213.2,42.9c-24.6,21.4-37,49.6-37,84.1
			c0,8.3,6.7,15,15,15h250.2c8.3,0,15-6.7,15-15V113.1V51.7C396.1,43.4,389.4,36.7,381.1,36.7z M366.1,208.3H147
			c2.8-18.7,11.3-33.9,25.6-46.4c50.5-44,156.7-38.7,193.5-35.4V208.3z"/>
	</g>
</g>
<g>
	<g>
		<path d="M170.9,248.7c-8.3,0-15,6.7-15,15v19.6c0,8.3,6.7,15,15,15c8.3,0,15-6.7,15-15v-19.6C185.9,255.4,179.2,248.7,170.9,248.7
			z"/>
	</g>
</g>
<g>
	<g>
		<path d="M227.6,248.7c-8.3,0-15,6.7-15,15v19.6c0,8.3,6.7,15,15,15c8.3,0,15-6.7,15-15v-19.6C242.6,255.4,235.9,248.7,227.6,248.7
			z"/>
	</g>
</g>
<g>
	<g>
		<path d="M284.4,248.7c-8.3,0-15,6.7-15,15v19.6c0,8.3,6.7,15,15,15s15-6.7,15-15v-19.6C299.4,255.4,292.7,248.7,284.4,248.7z"/>
	</g>
</g>
<g>
	<g>
		<path d="M341.1,248.7c-8.3,0-15,6.7-15,15v19.6c0,8.3,6.7,15,15,15s15-6.7,15-15v-19.6C356.1,255.4,349.4,248.7,341.1,248.7z"/>
	</g>
</g>
<g>
	<g>
		<path d="M338.2,151.4H256c-8.3,0-15,6.7-15,15c0,8.3,6.7,15,15,15h82.2c8.3,0,15-6.7,15-15C353.2,158.1,346.5,151.4,338.2,151.4z"
			/>
	</g>
</g>
<g>
</g>
<g>
</g>
<g>
</g>
<g>
</g>
<g>
</g>
<g>
</g>
<g>
</g>
<g>
</g>
<g>
</g>
<g>
</g>
<g>
</g>
<g>
</g>
<g>
</g>
<g>
</g>
<g>
</g>
</svg>
