<?xml version="1.0"?>
<svg xmlns="http://www.w3.org/2000/svg" height="512px" viewBox="0 0 480 480" width="512px"><path d="m120 312c0 66.273438 53.726562 120 120 120s120-53.726562 120-120-53.726562-120-120-120c-66.242188.074219-119.925781 53.757812-120 120zm224 0c0 57.4375-46.5625 104-104 104s-104-46.5625-104-104 46.5625-104 104-104c57.410156.066406 103.933594 46.589844 104 104zm0 0" fill="#FFFFFF"/><path d="m408 0h-336c-39.746094.0429688-71.9570312 32.253906-72 72v48c.0273438 22.082031 17.917969 39.972656 40 40h56c15.070312-.050781 28.824219-8.585938 35.558594-22.0625 4.519531 5.910156 10.164062 10.867188 16.609375 14.582031l-88.449219 88.457031c-7.523438 7.484376-11.746094 17.667969-11.71875 28.28125v170.742188c.027344 22.082031 17.917969 39.972656 40 40h304c22.082031-.027344 39.972656-17.917969 40-40v-170.742188c.027344-10.613281-4.195312-20.796874-11.71875-28.28125l-88.449219-88.457031c6.445313-3.714843 12.089844-8.671875 16.609375-14.582031 6.734375 13.476562 20.488282 22.011719 35.558594 22.0625h56c22.082031-.027344 39.972656-17.917969 40-40v-48c-.042969-39.746094-32.253906-71.9570312-72-72zm.96875 252.289062c4.484375 4.507813 7.011719 10.605469 7.03125 16.96875v170.742188c0 13.253906-10.746094 24-24 24h-304c-13.253906 0-24-10.746094-24-24v-170.742188c.019531-6.363281 2.546875-12.460937 7.03125-16.96875l92.28125-92.289062h153.375zm-64.96875-148.289062c-.027344 22.082031-17.917969 39.972656-40 40h-128c-22.082031-.027344-39.972656-17.917969-40-40v-32c0-4.417969 3.582031-8 8-8h24c4.417969 0 8 3.582031 8 8v16c0 13.253906 10.746094 24 24 24h80c13.253906 0 24-10.746094 24-24v-16c0-4.417969 3.582031-8 8-8h24c4.417969 0 8 3.582031 8 8zm-152-16v-8h96v8c0 4.417969-3.582031 8-8 8h-80c-4.417969 0-8-3.582031-8-8zm272 32c0 13.253906-10.746094 24-24 24h-56c-13.253906 0-24-10.746094-24-24v-48c0-13.253906-10.746094-24-24-24h-24c-10.167969.011719-19.230469 6.417969-22.632812 16h-98.734376c-3.402343-9.582031-12.464843-15.988281-22.632812-16h-24c-13.253906 0-24 10.746094-24 24v48c0 13.253906-10.746094 24-24 24h-56c-13.253906 0-24-10.746094-24-24v-48c.035156-30.914062 25.085938-55.964844 56-56h336c30.914062.035156 55.964844 25.085938 56 56zm0 0" fill="#FFFFFF"/><path d="m168 312c0 39.765625 32.234375 72 72 72s72-32.234375 72-72-32.234375-72-72-72c-39.746094.042969-71.957031 32.253906-72 72zm128 0c0 30.929688-25.070312 56-56 56s-56-25.070312-56-56 25.070312-56 56-56c30.914062.035156 55.964844 25.085938 56 56zm0 0" fill="#FFFFFF"/></svg>
